<?xml version="1.0" standalone="no"?>
<!DOCTYPE svg PUBLIC "-//W3C//DTD SVG 20010904//EN"
 "http://www.w3.org/TR/2001/REC-SVG-20010904/DTD/svg10.dtd">
<svg version="1.0" xmlns="http://www.w3.org/2000/svg"
 width="1024.000000pt" height="1024.000000pt" viewBox="0 0 1024.000000 1024.000000"
 preserveAspectRatio="xMidYMid meet">
<metadata>
Created by potrace 1.14, written by Peter Selinger 2001-2017
</metadata>
<g transform="translate(0.000000,1024.000000) scale(0.100000,-0.100000)"
fill="#000000" stroke="none">
<path d="M3147 8204 c-1 -1 -42 -5 -92 -9 -158 -12 -259 -39 -400 -106 -180
-85 -374 -249 -468 -395 -58 -91 -122 -226 -138 -290 -6 -27 -15 -53 -19 -59
-30 -40 -32 -184 -32 -2195 1 -1871 3 -2090 18 -2175 26 -140 133 -381 209
-472 5 -7 21 -27 35 -45 42 -56 156 -164 222 -211 93 -67 223 -130 333 -162
175 -52 88 -50 2340 -49 1846 2 2098 4 2160 17 148 33 311 103 434 186 84 57
225 200 289 294 98 141 177 345 197 505 9 71 10 4088 1 4172 -17 153 -87 340
-184 490 -50 77 -223 247 -307 302 -154 100 -331 167 -495 188 -71 9 -590 13
-2098 14 -1102 0 -2004 0 -2005 0z m3808 -698 c44 -4 98 -12 120 -18 22 -6 43
-12 46 -12 3 -1 41 -19 84 -41 108 -55 215 -162 272 -273 24 -45 40 -82 37
-82 -2 0 0 -9 6 -20 28 -52 30 -226 30 -1931 0 -1771 -2 -1879 -36 -1959 -51
-118 -89 -180 -150 -246 -39 -40 -145 -124 -158 -124 -3 0 -25 -9 -49 -19 -49
-23 -101 -37 -177 -47 -30 -4 -867 -8 -1860 -8 -1975 -1 -1892 -3 -2037 56
-83 35 -138 74 -210 152 -63 66 -134 194 -149 266 -2 8 -8 38 -14 66 -7 35 -9
619 -8 1895 l3 1844 24 65 c78 214 239 366 441 418 37 9 139 15 315 18 143 3
266 6 274 7 42 6 3128 -1 3196 -7z"/>
<path d="M4259 7001 c-75 -23 -110 -73 -111 -156 -1 -75 -1 -75 251 -344 64
-68 123 -131 131 -141 8 -9 67 -72 130 -141 142 -152 230 -254 230 -264 0 -4
-51 -60 -112 -124 -128 -132 -226 -237 -312 -333 l-59 -67 -96 6 c-169 10
-284 -31 -397 -142 -195 -191 -196 -514 -2 -704 122 -120 320 -167 492 -117
146 43 272 173 317 326 31 105 11 312 -37 385 -9 13 -14 32 -12 43 3 17 86
110 343 382 50 52 97 96 106 98 9 2 35 -18 59 -45 49 -55 172 -186 306 -325
52 -53 94 -99 94 -103 0 -3 -11 -28 -25 -56 -49 -96 -63 -243 -34 -356 78
-307 415 -456 702 -312 108 55 198 165 237 291 30 98 17 279 -26 346 -8 12
-12 22 -9 22 10 0 -43 72 -86 117 -54 57 -110 95 -184 124 -51 20 -79 23 -189
25 l-129 1 -55 59 c-30 32 -118 127 -196 209 -202 213 -226 241 -226 256 1 15
16 32 188 217 58 62 113 121 121 131 18 20 198 215 250 270 133 141 170 190
176 234 18 121 -85 217 -200 186 -35 -10 -159 -131 -369 -360 -32 -35 -102
-109 -155 -164 -53 -55 -129 -136 -169 -180 l-74 -80 -121 125 c-67 69 -201
209 -298 310 -315 330 -323 338 -358 349 -38 12 -55 13 -92 2z m91 -1871 c108
-56 149 -189 86 -288 -43 -69 -86 -96 -171 -105 -38 -4 -106 18 -138 44 -72
59 -95 140 -66 225 25 75 70 120 144 146 29 10 104 -1 145 -22z m1738 1 c132
-68 155 -245 45 -341 -38 -33 -116 -59 -161 -53 -70 10 -137 56 -168 115 -18
34 -27 126 -14 143 4 6 10 21 13 35 12 48 84 107 152 124 32 8 94 -3 133 -23z"/>
<path d="M3190 5238 c-44 -30 -68 -75 -66 -123 7 -163 216 -201 270 -49 44
128 -95 245 -204 172z"/>
<path d="M6924 5246 c-92 -41 -105 -188 -21 -250 37 -28 122 -28 159 -1 49 37
71 80 66 129 -12 103 -111 162 -204 122z"/>
<path d="M5065 4576 c-53 -24 -78 -60 -83 -120 -8 -94 49 -158 139 -158 115 0
179 104 129 207 -12 25 -33 53 -46 62 -33 21 -103 26 -139 9z"/>
<path d="M3425 3959 c-97 -13 -159 -57 -205 -147 -32 -60 -25 -145 14 -197 26
-33 82 -75 111 -82 105 -25 143 -37 168 -49 26 -14 28 -20 23 -47 -7 -35 -20
-46 -56 -48 -55 -3 -77 3 -120 33 -51 35 -82 40 -123 20 -116 -58 17 -212 195
-226 70 -5 167 25 215 67 87 76 99 210 27 296 -25 30 -97 65 -164 81 -75 17
-130 46 -130 68 0 10 10 28 23 40 30 29 104 30 138 3 13 -10 34 -21 46 -25 31
-10 85 16 102 48 14 24 13 31 -4 63 -39 71 -153 116 -260 102z"/>
<path d="M3953 3948 c-43 -21 -48 -55 -48 -358 -1 -300 2 -327 44 -350 33 -17
78 -11 108 14 l28 24 1 293 c2 290 -3 346 -31 369 -20 17 -76 21 -102 8z"/>
<path d="M4329 3946 c-47 -23 -50 -45 -49 -346 0 -298 5 -336 48 -359 38 -20
82 -13 112 18 28 28 29 33 29 117 -1 153 1 194 10 194 4 0 39 -35 77 -79 83
-95 112 -115 147 -102 14 5 31 18 38 29 8 10 32 40 54 67 91 110 93 109 97
-65 3 -159 12 -177 85 -187 32 -4 44 -1 71 22 l33 27 -3 314 c-3 303 -4 314
-24 334 -12 12 -39 24 -61 27 -46 6 -46 6 -206 -170 -54 -59 -104 -107 -110
-106 -7 0 -36 28 -64 62 -29 34 -85 96 -125 138 -78 81 -105 92 -159 65z"/>
<path d="M5328 3948 c-48 -16 -52 -47 -53 -353 -1 -154 3 -292 8 -308 17 -52
74 -71 132 -45 29 13 33 26 38 121 2 37 7 70 10 73 3 3 38 7 79 9 173 7 263
93 262 250 -1 77 -20 123 -77 184 -55 58 -103 73 -246 75 -69 2 -138 -1 -153
-6z m253 -191 c42 -28 51 -80 21 -117 -16 -20 -29 -24 -75 -24 -30 -1 -58 2
-62 6 -15 15 -15 121 0 138 22 25 76 24 116 -3z"/>
<path d="M6007 3940 c-14 -11 -28 -33 -31 -48 -3 -15 -7 -151 -8 -302 -2 -315
1 -333 61 -351 21 -6 96 -9 183 -7 137 3 149 5 170 26 32 31 31 93 -1 121 -27
24 -28 24 -128 23 -52 -1 -75 3 -84 14 -9 11 -13 79 -14 247 -1 248 -5 270
-51 287 -39 15 -69 12 -97 -10z"/>
<path d="M6623 3945 c-17 -8 -36 -22 -42 -34 -7 -13 -11 -124 -11 -320 l0
-300 24 -28 24 -28 178 -3 c97 -2 192 -1 210 3 74 13 99 93 46 143 -28 26 -32
27 -150 26 -67 0 -126 2 -130 5 -5 3 -14 16 -21 28 -9 19 -8 26 7 41 15 15 34
19 86 20 99 0 146 42 131 114 -10 44 -40 58 -122 58 -59 0 -77 4 -93 20 -16
16 -18 24 -9 50 6 16 18 31 27 32 16 1 117 5 210 7 51 1 92 35 92 76 0 34 -24
80 -47 90 -33 15 -376 14 -410 0z"/>
</g>
</svg>
